%TF.GenerationSoftware,KiCad,Pcbnew,(6.0.6)*%
%TF.CreationDate,2022-10-01T00:42:19+08:00*%
%TF.ProjectId,Scratch_control,53637261-7463-4685-9f63-6f6e74726f6c,rev?*%
%TF.SameCoordinates,Original*%
%TF.FileFunction,Copper,L2,Bot*%
%TF.FilePolarity,Positive*%
%FSLAX46Y46*%
G04 Gerber Fmt 4.6, Leading zero omitted, Abs format (unit mm)*
G04 Created by KiCad (PCBNEW (6.0.6)) date 2022-10-01 00:42:19*
%MOMM*%
%LPD*%
G01*
G04 APERTURE LIST*
%TA.AperFunction,ComponentPad*%
%ADD10R,1.700000X1.700000*%
%TD*%
%TA.AperFunction,ComponentPad*%
%ADD11O,1.700000X1.700000*%
%TD*%
%TA.AperFunction,ComponentPad*%
%ADD12C,1.400000*%
%TD*%
%TA.AperFunction,ComponentPad*%
%ADD13R,3.500000X3.500000*%
%TD*%
%TA.AperFunction,ComponentPad*%
%ADD14C,3.500000*%
%TD*%
%TA.AperFunction,ViaPad*%
%ADD15C,0.800000*%
%TD*%
%TA.AperFunction,ViaPad*%
%ADD16C,0.600000*%
%TD*%
%TA.AperFunction,Conductor*%
%ADD17C,0.400000*%
%TD*%
%TA.AperFunction,Conductor*%
%ADD18C,0.250000*%
%TD*%
G04 APERTURE END LIST*
D10*
%TO.P,J5,1*%
%TO.N,GND*%
X171069000Y-138811000D03*
D11*
%TO.P,J5,2*%
%TO.N,/SWCLK*%
X168529000Y-138811000D03*
%TO.P,J5,3*%
%TO.N,/SWDIO*%
X165989000Y-138811000D03*
%TO.P,J5,4*%
%TO.N,+3V3*%
X163449000Y-138811000D03*
%TD*%
D12*
%TO.P,J4,*%
%TO.N,*%
X176110000Y-139453000D03*
X187110000Y-139453000D03*
D13*
%TO.P,J4,1,Pin_1*%
%TO.N,+24V*%
X179110000Y-129453000D03*
D14*
%TO.P,J4,2,Pin_2*%
%TO.N,GND*%
X184110000Y-129453000D03*
%TD*%
D10*
%TO.P,J2,1,Pin_1*%
%TO.N,+5V*%
X176418000Y-98228000D03*
D11*
%TO.P,J2,2,Pin_2*%
%TO.N,/PWM3*%
X178958000Y-98228000D03*
%TO.P,J2,3,Pin_3*%
%TO.N,GND*%
X181498000Y-98228000D03*
%TD*%
D10*
%TO.P,J1,1,Pin_1*%
%TO.N,/PWM4*%
X134254000Y-98101000D03*
D11*
%TO.P,J1,2,Pin_2*%
%TO.N,+5V*%
X136794000Y-98101000D03*
%TO.P,J1,3,Pin_3*%
%TO.N,GND*%
X139334000Y-98101000D03*
%TD*%
D15*
%TO.N,GND*%
X138430000Y-136652000D03*
X141688080Y-102716282D03*
X170053000Y-125857000D03*
X157226000Y-135001000D03*
X150876000Y-136398000D03*
X130048000Y-106807000D03*
X131826000Y-136398000D03*
X171450000Y-133985000D03*
X131826000Y-134874000D03*
D16*
X152908000Y-121031000D03*
D15*
X167229904Y-110822518D03*
X181737000Y-108077000D03*
X144526000Y-135128000D03*
X144526000Y-136652000D03*
X144780000Y-107950000D03*
X160216990Y-105100777D03*
X170053000Y-133985000D03*
X181864000Y-134747000D03*
X139319000Y-119761000D03*
X187862517Y-111794054D03*
X131445000Y-106807000D03*
X130175000Y-118110000D03*
X170688000Y-102489000D03*
X170688000Y-104013000D03*
X152273000Y-134874000D03*
X167259000Y-102489000D03*
X157226000Y-136525000D03*
X182094899Y-118319723D03*
X133223000Y-134874000D03*
X158819990Y-106624777D03*
X130048000Y-105283000D03*
X158623000Y-136525000D03*
X179705000Y-136271000D03*
X158747318Y-113659169D03*
X172593000Y-114300000D03*
X165862000Y-116967000D03*
X133223000Y-136398000D03*
X172085000Y-102489000D03*
X185420000Y-114300000D03*
X140716000Y-119761000D03*
X182363777Y-121904764D03*
X146558000Y-106426000D03*
X130048000Y-109728000D03*
X130048000Y-108204000D03*
X147955000Y-106426000D03*
X139319000Y-121285000D03*
X154813000Y-113284000D03*
X142494000Y-121285000D03*
X163430470Y-129662692D03*
X178308000Y-134747000D03*
X178308000Y-136271000D03*
X181864000Y-136271000D03*
X156337000Y-113665000D03*
X183261000Y-136271000D03*
X152273000Y-136398000D03*
X142494000Y-119761000D03*
X143383000Y-107950000D03*
X167259000Y-104013000D03*
X139827000Y-135128000D03*
X140081000Y-104648000D03*
X147955000Y-115951000D03*
X168656000Y-102489000D03*
X157661209Y-125659396D03*
X179705000Y-134747000D03*
X131445000Y-108204000D03*
X170053000Y-127381000D03*
X159512000Y-127381000D03*
X143891000Y-119761000D03*
X147955000Y-104902000D03*
X145923000Y-135128000D03*
X156718000Y-124714000D03*
X171450000Y-130810000D03*
X143383000Y-109474000D03*
X170679148Y-120268268D03*
X158819990Y-105100777D03*
X171450000Y-132461000D03*
X145923000Y-136652000D03*
X184023000Y-108204000D03*
X144780000Y-109474000D03*
X170053000Y-129286000D03*
X171450000Y-127381000D03*
X131699000Y-114046000D03*
X183261000Y-134747000D03*
X131445000Y-105283000D03*
X183388000Y-111125000D03*
X172085000Y-104013000D03*
X168656000Y-104013000D03*
X143891000Y-121285000D03*
X142494000Y-117983000D03*
X170053000Y-130810000D03*
X160216990Y-106624777D03*
X170053000Y-132461000D03*
X171450000Y-129286000D03*
X138430000Y-135128000D03*
X171450000Y-125857000D03*
X146558000Y-104902000D03*
X150876000Y-134874000D03*
X164175980Y-112522093D03*
X172741653Y-120516122D03*
X140716000Y-121285000D03*
X175768000Y-120523000D03*
X163576000Y-126619000D03*
X131445000Y-109728000D03*
X139827000Y-136652000D03*
%TO.N,+3V3*%
X175768000Y-106680000D03*
D16*
X129921000Y-127508000D03*
D15*
X177927000Y-106680000D03*
D16*
X140843000Y-128143000D03*
X148336000Y-129159000D03*
X155067000Y-130429000D03*
D15*
X176911000Y-106705000D03*
%TO.N,+5V*%
X158242000Y-96901000D03*
D16*
%TO.N,/SENSOR*%
X140843000Y-115951000D03*
X135382000Y-114427000D03*
D15*
%TO.N,/SWDIO*%
X141478000Y-112776000D03*
%TO.N,/SWCLK*%
X142875000Y-112014000D03*
D16*
%TO.N,/PWM3*%
X138303000Y-115316000D03*
X136525000Y-114173000D03*
%TO.N,/PWM4*%
X140970000Y-114681000D03*
%TD*%
D17*
%TO.N,+3V3*%
X175514000Y-106680000D02*
X176886000Y-106680000D01*
X130810000Y-127508000D02*
X129921000Y-127508000D01*
X174371000Y-138684000D02*
X174371000Y-107823000D01*
X153797000Y-129159000D02*
X143510000Y-129159000D01*
X174371000Y-107823000D02*
X175514000Y-106680000D01*
X176911000Y-106705000D02*
X177902000Y-106705000D01*
X143510000Y-129159000D02*
X141732000Y-129159000D01*
X177902000Y-106705000D02*
X177927000Y-106680000D01*
X163449000Y-138811000D02*
X165862000Y-141224000D01*
X140081000Y-127508000D02*
X130810000Y-127508000D01*
X165862000Y-141224000D02*
X171831000Y-141224000D01*
X163449000Y-138811000D02*
X153797000Y-129159000D01*
X141732000Y-129159000D02*
X140081000Y-127508000D01*
X176886000Y-106680000D02*
X176911000Y-106705000D01*
X171831000Y-141224000D02*
X174371000Y-138684000D01*
%TO.N,+5V*%
X176418000Y-98228000D02*
X158312000Y-98228000D01*
X136794000Y-95997000D02*
X136794000Y-98101000D01*
X158242000Y-96901000D02*
X158242000Y-98158000D01*
X158312000Y-98228000D02*
X146107000Y-98228000D01*
X158242000Y-98158000D02*
X158312000Y-98228000D01*
X137414000Y-95377000D02*
X136794000Y-95997000D01*
X146107000Y-98228000D02*
X143256000Y-95377000D01*
X143256000Y-95377000D02*
X137414000Y-95377000D01*
D18*
%TO.N,/SENSOR*%
X136906000Y-115951000D02*
X140843000Y-115951000D01*
X135382000Y-114427000D02*
X136906000Y-115951000D01*
%TO.N,/SWDIO*%
X142748000Y-115570000D02*
X142748000Y-114046000D01*
X142748000Y-114046000D02*
X141478000Y-112776000D01*
X165989000Y-138811000D02*
X142748000Y-115570000D01*
%TO.N,/SWCLK*%
X168529000Y-138811000D02*
X144018000Y-114300000D01*
X144018000Y-113157000D02*
X142875000Y-112014000D01*
X144018000Y-114300000D02*
X144018000Y-113157000D01*
%TO.N,/PWM3*%
X137666604Y-115316000D02*
X137668000Y-115316000D01*
X137668000Y-115316000D02*
X138303000Y-115316000D01*
X136525000Y-114173000D02*
X136525000Y-114174396D01*
X136525000Y-114174396D02*
X137666604Y-115316000D01*
%TO.N,/PWM4*%
X138303000Y-114681000D02*
X134254000Y-110632000D01*
X140970000Y-114681000D02*
X138303000Y-114681000D01*
X134254000Y-110632000D02*
X134254000Y-98101000D01*
%TD*%
%TA.AperFunction,Conductor*%
%TO.N,GND*%
G36*
X137139073Y-94508502D02*
G01*
X137185566Y-94562158D01*
X137195670Y-94632432D01*
X137166176Y-94697012D01*
X137115490Y-94732366D01*
X137083344Y-94744513D01*
X137077083Y-94748816D01*
X137074717Y-94750053D01*
X137059937Y-94758280D01*
X137057652Y-94759631D01*
X137050695Y-94762685D01*
X137044675Y-94767305D01*
X137044669Y-94767308D01*
X137013542Y-94791194D01*
X136999998Y-94801587D01*
X136994668Y-94805459D01*
X136948280Y-94837339D01*
X136948275Y-94837344D01*
X136942019Y-94841643D01*
X136936968Y-94847313D01*
X136936966Y-94847314D01*
X136900565Y-94888170D01*
X136895584Y-94893446D01*
X136313480Y-95475550D01*
X136307215Y-95481404D01*
X136263615Y-95519439D01*
X136259248Y-95525653D01*
X136226872Y-95571719D01*
X136222939Y-95577014D01*
X136183524Y-95627282D01*
X136180401Y-95634198D01*
X136179017Y-95636484D01*
X136170643Y-95651165D01*
X136169378Y-95653525D01*
X136165010Y-95659739D01*
X136162250Y-95666818D01*
X136162249Y-95666820D01*
X136141798Y-95719275D01*
X136139247Y-95725344D01*
X136112955Y-95783573D01*
X136111571Y-95791040D01*
X136110770Y-95793595D01*
X136106141Y-95809848D01*
X136105478Y-95812428D01*
X136102718Y-95819509D01*
X136101727Y-95827040D01*
X136101726Y-95827042D01*
X136094379Y-95882852D01*
X136093348Y-95889359D01*
X136081704Y-95952186D01*
X136082141Y-95959766D01*
X136082141Y-95959767D01*
X136085291Y-96014392D01*
X136085500Y-96021646D01*
X136085500Y-96871114D01*
X136065498Y-96939235D01*
X136035153Y-96971874D01*
X135898459Y-97074507D01*
X135888965Y-97081635D01*
X135832537Y-97140684D01*
X135808283Y-97166064D01*
X135746759Y-97201494D01*
X135675846Y-97198037D01*
X135618060Y-97156791D01*
X135599207Y-97123243D01*
X135557767Y-97012703D01*
X135554615Y-97004295D01*
X135467261Y-96887739D01*
X135350705Y-96800385D01*
X135214316Y-96749255D01*
X135152134Y-96742500D01*
X133355866Y-96742500D01*
X133293684Y-96749255D01*
X133157295Y-96800385D01*
X133040739Y-96887739D01*
X132953385Y-97004295D01*
X132902255Y-97140684D01*
X132895500Y-97202866D01*
X132895500Y-98999134D01*
X132902255Y-99061316D01*
X132953385Y-99197705D01*
X133040739Y-99314261D01*
X133157295Y-99401615D01*
X133293684Y-99452745D01*
X133355866Y-99459500D01*
X133494500Y-99459500D01*
X133562621Y-99479502D01*
X133609114Y-99533158D01*
X133620500Y-99585500D01*
X133620500Y-110553233D01*
X133619973Y-110564416D01*
X133618298Y-110571909D01*
X133618547Y-110579835D01*
X133618547Y-110579836D01*
X133620438Y-110639986D01*
X133620500Y-110643945D01*
X133620500Y-110671856D01*
X133620997Y-110675790D01*
X133620997Y-110675791D01*
X133621005Y-110675856D01*
X133621938Y-110687693D01*
X133623327Y-110731889D01*
X133628978Y-110751339D01*
X133632987Y-110770700D01*
X133635526Y-110790797D01*
X133638445Y-110798168D01*
X133638445Y-110798170D01*
X133651804Y-110831912D01*
X133655649Y-110843142D01*
X133667982Y-110885593D01*
X133672015Y-110892412D01*
X133672017Y-110892417D01*
X133678293Y-110903028D01*
X133686988Y-110920776D01*
X133694448Y-110939617D01*
X133699110Y-110946033D01*
X133699110Y-110946034D01*
X133720436Y-110975387D01*
X133726952Y-110985307D01*
X133749458Y-111023362D01*
X133763779Y-111037683D01*
X133776619Y-111052716D01*
X133788528Y-111069107D01*
X133794634Y-111074158D01*
X133822605Y-111097298D01*
X133831384Y-111105288D01*
X136056066Y-113329970D01*
X136090092Y-113392282D01*
X136085027Y-113463097D01*
X136042480Y-113519933D01*
X136032999Y-113526379D01*
X136030091Y-113528168D01*
X136030085Y-113528172D01*
X136024088Y-113531862D01*
X136019055Y-113536791D01*
X135906880Y-113646641D01*
X135894493Y-113658771D01*
X135891451Y-113663491D01*
X135833363Y-113703319D01*
X135762398Y-113705436D01*
X135742140Y-113697932D01*
X135738666Y-113695727D01*
X135647238Y-113663171D01*
X135574425Y-113637243D01*
X135574420Y-113637242D01*
X135567790Y-113634881D01*
X135560802Y-113634048D01*
X135560799Y-113634047D01*
X135437698Y-113619368D01*
X135387680Y-113613404D01*
X135380677Y-113614140D01*
X135380676Y-113614140D01*
X135214288Y-113631628D01*
X135214286Y-113631629D01*
X135207288Y-113632364D01*
X135035579Y-113690818D01*
X135015259Y-113703319D01*
X134887095Y-113782166D01*
X134887092Y-113782168D01*
X134881088Y-113785862D01*
X134876053Y-113790793D01*
X134876050Y-113790795D01*
X134765942Y-113898621D01*
X134751493Y-113912771D01*
X134653235Y-114065238D01*
X134650826Y-114071858D01*
X134650824Y-114071861D01*
X134610883Y-114181598D01*
X134591197Y-114235685D01*
X134568463Y-114415640D01*
X134586163Y-114596160D01*
X134643418Y-114768273D01*
X134647065Y-114774295D01*
X134647066Y-114774297D01*
X134647189Y-114774499D01*
X134737380Y-114923424D01*
X134863382Y-115053902D01*
X135015159Y-115153222D01*
X135021763Y-115155678D01*
X135021765Y-115155679D01*
X135178558Y-115213990D01*
X135178560Y-115213990D01*
X135185168Y-115216448D01*
X135192153Y-115217380D01*
X135192157Y-115217381D01*
X135227087Y-115222041D01*
X135247187Y-115224723D01*
X135312063Y-115253558D01*
X135319617Y-115260521D01*
X136402343Y-116343247D01*
X136409887Y-116351537D01*
X136414000Y-116358018D01*
X136419777Y-116363443D01*
X136463667Y-116404658D01*
X136466509Y-116407413D01*
X136486230Y-116427134D01*
X136489425Y-116429612D01*
X136498447Y-116437318D01*
X136530679Y-116467586D01*
X136537628Y-116471406D01*
X136548432Y-116477346D01*
X136564956Y-116488199D01*
X136580959Y-116500613D01*
X136621543Y-116518176D01*
X136632173Y-116523383D01*
X136670940Y-116544695D01*
X136678617Y-116546666D01*
X136678622Y-116546668D01*
X136690558Y-116549732D01*
X136709266Y-116556137D01*
X136727855Y-116564181D01*
X136735680Y-116565420D01*
X136735682Y-116565421D01*
X136771519Y-116571097D01*
X136783140Y-116573504D01*
X136818289Y-116582528D01*
X136825970Y-116584500D01*
X136846231Y-116584500D01*
X136865940Y-116586051D01*
X136885943Y-116589219D01*
X136893835Y-116588473D01*
X136899062Y-116587979D01*
X136929954Y-116585059D01*
X136941811Y-116584500D01*
X140296903Y-116584500D01*
X140365896Y-116605068D01*
X140476159Y-116677222D01*
X140482763Y-116679678D01*
X140482765Y-116679679D01*
X140639558Y-116737990D01*
X140639560Y-116737990D01*
X140646168Y-116740448D01*
X140729995Y-116751633D01*
X140818980Y-116763507D01*
X140818984Y-116763507D01*
X140825961Y-116764438D01*
X140832972Y-116763800D01*
X140832976Y-116763800D01*
X140975459Y-116750832D01*
X141006600Y-116747998D01*
X141013302Y-116745820D01*
X141013304Y-116745820D01*
X141172409Y-116694124D01*
X141172412Y-116694123D01*
X141179108Y-116691947D01*
X141334912Y-116599069D01*
X141466266Y-116473982D01*
X141566643Y-116322902D01*
X141631055Y-116153338D01*
X141632035Y-116146366D01*
X141655748Y-115977639D01*
X141655748Y-115977636D01*
X141656299Y-115973717D01*
X141656616Y-115951000D01*
X141636397Y-115770745D01*
X141614791Y-115708700D01*
X141579064Y-115606106D01*
X141579062Y-115606103D01*
X141576745Y-115599448D01*
X141482439Y-115448525D01*
X141463304Y-115380157D01*
X141484170Y-115312296D01*
X141502402Y-115290512D01*
X141588159Y-115208846D01*
X141588162Y-115208843D01*
X141593266Y-115203982D01*
X141693643Y-115052902D01*
X141758055Y-114883338D01*
X141778358Y-114738876D01*
X141782748Y-114707639D01*
X141782748Y-114707636D01*
X141783299Y-114703717D01*
X141783616Y-114681000D01*
X141763397Y-114500745D01*
X141748789Y-114458797D01*
X141706064Y-114336106D01*
X141706062Y-114336103D01*
X141703745Y-114329448D01*
X141607626Y-114175624D01*
X141538577Y-114106091D01*
X141484778Y-114051915D01*
X141484774Y-114051912D01*
X141479815Y-114046918D01*
X141468697Y-114039862D01*
X141399959Y-113996240D01*
X141326666Y-113949727D01*
X141183143Y-113898621D01*
X141161109Y-113882634D01*
X141144452Y-113887013D01*
X141133124Y-113886178D01*
X141038028Y-113874839D01*
X140975680Y-113867404D01*
X140968677Y-113868140D01*
X140968676Y-113868140D01*
X140802288Y-113885628D01*
X140802286Y-113885629D01*
X140795288Y-113886364D01*
X140623579Y-113944818D01*
X140487039Y-114028819D01*
X140421019Y-114047500D01*
X138617594Y-114047500D01*
X138549473Y-114027498D01*
X138528499Y-114010595D01*
X134924405Y-110406500D01*
X134890379Y-110344188D01*
X134887500Y-110317405D01*
X134887500Y-99585500D01*
X134907502Y-99517379D01*
X134961158Y-99470886D01*
X135013500Y-99459500D01*
X135152134Y-99459500D01*
X135214316Y-99452745D01*
X135350705Y-99401615D01*
X135467261Y-99314261D01*
X135554615Y-99197705D01*
X135576799Y-99138529D01*
X135598598Y-99080382D01*
X135641240Y-99023618D01*
X135707802Y-98998918D01*
X135777150Y-99014126D01*
X135811817Y-99042114D01*
X135840250Y-99074938D01*
X136012126Y-99217632D01*
X136205000Y-99330338D01*
X136413692Y-99410030D01*
X136418760Y-99411061D01*
X136418763Y-99411062D01*
X136513862Y-99430410D01*
X136632597Y-99454567D01*
X136637772Y-99454757D01*
X136637774Y-99454757D01*
X136850673Y-99462564D01*
X136850677Y-99462564D01*
X136855837Y-99462753D01*
X136860957Y-99462097D01*
X136860959Y-99462097D01*
X137072288Y-99435025D01*
X137072289Y-99435025D01*
X137077416Y-99434368D01*
X137082366Y-99432883D01*
X137286429Y-99371661D01*
X137286434Y-99371659D01*
X137291384Y-99370174D01*
X137491994Y-99271896D01*
X137673860Y-99142173D01*
X137704652Y-99111489D01*
X137817616Y-98998918D01*
X137832096Y-98984489D01*
X137866580Y-98936500D01*
X137962453Y-98803077D01*
X137963640Y-98803930D01*
X138010960Y-98760362D01*
X138080897Y-98748145D01*
X138146338Y-98775678D01*
X138174166Y-98807511D01*
X138231694Y-98901388D01*
X138237777Y-98909699D01*
X138377213Y-99070667D01*
X138384580Y-99077883D01*
X138548434Y-99213916D01*
X138556881Y-99219831D01*
X138740756Y-99327279D01*
X138750042Y-99331729D01*
X138949001Y-99407703D01*
X138958899Y-99410579D01*
X139062250Y-99431606D01*
X139076299Y-99430410D01*
X139080000Y-99420065D01*
X139080000Y-99419517D01*
X139588000Y-99419517D01*
X139592064Y-99433359D01*
X139605478Y-99435393D01*
X139612184Y-99434534D01*
X139622262Y-99432392D01*
X139826255Y-99371191D01*
X139835842Y-99367433D01*
X140027095Y-99273739D01*
X140035945Y-99268464D01*
X140209328Y-99144792D01*
X140217200Y-99138139D01*
X140368052Y-98987812D01*
X140374730Y-98979965D01*
X140499003Y-98807020D01*
X140504313Y-98798183D01*
X140598670Y-98607267D01*
X140602469Y-98597672D01*
X140664377Y-98393910D01*
X140666555Y-98383837D01*
X140667986Y-98372962D01*
X140665775Y-98358778D01*
X140652617Y-98355000D01*
X139606115Y-98355000D01*
X139590876Y-98359475D01*
X139589671Y-98360865D01*
X139588000Y-98368548D01*
X139588000Y-99419517D01*
X139080000Y-99419517D01*
X139080000Y-97828885D01*
X139588000Y-97828885D01*
X139592475Y-97844124D01*
X139593865Y-97845329D01*
X139601548Y-97847000D01*
X140652344Y-97847000D01*
X140665875Y-97843027D01*
X140667180Y-97833947D01*
X140625214Y-97666875D01*
X140621894Y-97657124D01*
X140536972Y-97461814D01*
X140532105Y-97452739D01*
X140416426Y-97273926D01*
X140410136Y-97265757D01*
X140266806Y-97108240D01*
X140259273Y-97101215D01*
X140092139Y-96969222D01*
X140083552Y-96963517D01*
X139897117Y-96860599D01*
X139887705Y-96856369D01*
X139686959Y-96785280D01*
X139676988Y-96782646D01*
X139605837Y-96769972D01*
X139592540Y-96771432D01*
X139588000Y-96785989D01*
X139588000Y-97828885D01*
X139080000Y-97828885D01*
X139080000Y-96784102D01*
X139076082Y-96770758D01*
X139061806Y-96768771D01*
X139023324Y-96774660D01*
X139013288Y-96777051D01*
X138810868Y-96843212D01*
X138801359Y-96847209D01*
X138612463Y-96945542D01*
X138603738Y-96951036D01*
X138433433Y-97078905D01*
X138425726Y-97085748D01*
X138278590Y-97239717D01*
X138272109Y-97247722D01*
X138167498Y-97401074D01*
X138112587Y-97446076D01*
X138042062Y-97454247D01*
X137978315Y-97422993D01*
X137957618Y-97398509D01*
X137876822Y-97273617D01*
X137876820Y-97273614D01*
X137874014Y-97269277D01*
X137723670Y-97104051D01*
X137719619Y-97100852D01*
X137719615Y-97100848D01*
X137550408Y-96967216D01*
X137509345Y-96909298D01*
X137502500Y-96868334D01*
X137502500Y-96342661D01*
X137522502Y-96274540D01*
X137539405Y-96253565D01*
X137670567Y-96122404D01*
X137732879Y-96088379D01*
X137759662Y-96085500D01*
X142910340Y-96085500D01*
X142978461Y-96105502D01*
X142999435Y-96122405D01*
X145585550Y-98708520D01*
X145591404Y-98714785D01*
X145629439Y-98758385D01*
X145681719Y-98795128D01*
X145687014Y-98799061D01*
X145737282Y-98838476D01*
X145744198Y-98841599D01*
X145746484Y-98842983D01*
X145761165Y-98851357D01*
X145763525Y-98852622D01*
X145769739Y-98856990D01*
X145776818Y-98859750D01*
X145776820Y-98859751D01*
X145829275Y-98880202D01*
X145835344Y-98882753D01*
X145893573Y-98909045D01*
X145901040Y-98910429D01*
X145903595Y-98911230D01*
X145919848Y-98915859D01*
X145922428Y-98916522D01*
X145929509Y-98919282D01*
X145937040Y-98920273D01*
X145937042Y-98920274D01*
X145966661Y-98924173D01*
X145992861Y-98927622D01*
X145999359Y-98928652D01*
X146062186Y-98940296D01*
X146069766Y-98939859D01*
X146069767Y-98939859D01*
X146124392Y-98936709D01*
X146131646Y-98936500D01*
X158235127Y-98936500D01*
X158258088Y-98938610D01*
X158259718Y-98938912D01*
X158259719Y-98938912D01*
X158267186Y-98940296D01*
X158274766Y-98939859D01*
X158274767Y-98939859D01*
X158329392Y-98936709D01*
X158336646Y-98936500D01*
X174933500Y-98936500D01*
X175001621Y-98956502D01*
X175048114Y-99010158D01*
X175059500Y-99062500D01*
X175059500Y-99126134D01*
X175066255Y-99188316D01*
X175117385Y-99324705D01*
X175204739Y-99441261D01*
X175321295Y-99528615D01*
X175457684Y-99579745D01*
X175519866Y-99586500D01*
X177316134Y-99586500D01*
X177378316Y-99579745D01*
X177514705Y-99528615D01*
X177631261Y-99441261D01*
X177718615Y-99324705D01*
X177737559Y-99274173D01*
X177762598Y-99207382D01*
X177805240Y-99150618D01*
X177871802Y-99125918D01*
X177941150Y-99141126D01*
X177975817Y-99169114D01*
X178004250Y-99201938D01*
X178176126Y-99344632D01*
X178369000Y-99457338D01*
X178373825Y-99459180D01*
X178373826Y-99459181D01*
X178446612Y-99486975D01*
X178577692Y-99537030D01*
X178582760Y-99538061D01*
X178582763Y-99538062D01*
X178677862Y-99557410D01*
X178796597Y-99581567D01*
X178801772Y-99581757D01*
X178801774Y-99581757D01*
X179014673Y-99589564D01*
X179014677Y-99589564D01*
X179019837Y-99589753D01*
X179024957Y-99589097D01*
X179024959Y-99589097D01*
X179236288Y-99562025D01*
X179236289Y-99562025D01*
X179241416Y-99561368D01*
X179246366Y-99559883D01*
X179450429Y-99498661D01*
X179450434Y-99498659D01*
X179455384Y-99497174D01*
X179655994Y-99398896D01*
X179837860Y-99269173D01*
X179889582Y-99217632D01*
X179962676Y-99144792D01*
X179996096Y-99111489D01*
X180022361Y-99074938D01*
X180126453Y-98930077D01*
X180127640Y-98930930D01*
X180174960Y-98887362D01*
X180244897Y-98875145D01*
X180310338Y-98902678D01*
X180338166Y-98934511D01*
X180395694Y-99028388D01*
X180401777Y-99036699D01*
X180541213Y-99197667D01*
X180548580Y-99204883D01*
X180712434Y-99340916D01*
X180720881Y-99346831D01*
X180904756Y-99454279D01*
X180914042Y-99458729D01*
X181113001Y-99534703D01*
X181122899Y-99537579D01*
X181226250Y-99558606D01*
X181240299Y-99557410D01*
X181244000Y-99547065D01*
X181244000Y-99546517D01*
X181752000Y-99546517D01*
X181756064Y-99560359D01*
X181769478Y-99562393D01*
X181776184Y-99561534D01*
X181786262Y-99559392D01*
X181990255Y-99498191D01*
X181999842Y-99494433D01*
X182191095Y-99400739D01*
X182199945Y-99395464D01*
X182373328Y-99271792D01*
X182381200Y-99265139D01*
X182532052Y-99114812D01*
X182538730Y-99106965D01*
X182663003Y-98934020D01*
X182668313Y-98925183D01*
X182762670Y-98734267D01*
X182766469Y-98724672D01*
X182828377Y-98520910D01*
X182830555Y-98510837D01*
X182831986Y-98499962D01*
X182829775Y-98485778D01*
X182816617Y-98482000D01*
X181770115Y-98482000D01*
X181754876Y-98486475D01*
X181753671Y-98487865D01*
X181752000Y-98495548D01*
X181752000Y-99546517D01*
X181244000Y-99546517D01*
X181244000Y-97955885D01*
X181752000Y-97955885D01*
X181756475Y-97971124D01*
X181757865Y-97972329D01*
X181765548Y-97974000D01*
X182816344Y-97974000D01*
X182829875Y-97970027D01*
X182831180Y-97960947D01*
X182789214Y-97793875D01*
X182785894Y-97784124D01*
X182700972Y-97588814D01*
X182696105Y-97579739D01*
X182580426Y-97400926D01*
X182574136Y-97392757D01*
X182430806Y-97235240D01*
X182423273Y-97228215D01*
X182256139Y-97096222D01*
X182247552Y-97090517D01*
X182061117Y-96987599D01*
X182051705Y-96983369D01*
X181850959Y-96912280D01*
X181840988Y-96909646D01*
X181769837Y-96896972D01*
X181756540Y-96898432D01*
X181752000Y-96912989D01*
X181752000Y-97955885D01*
X181244000Y-97955885D01*
X181244000Y-96911102D01*
X181240082Y-96897758D01*
X181225806Y-96895771D01*
X181187324Y-96901660D01*
X181177288Y-96904051D01*
X180974868Y-96970212D01*
X180965359Y-96974209D01*
X180776463Y-97072542D01*
X180767738Y-97078036D01*
X180597433Y-97205905D01*
X180589726Y-97212748D01*
X180442590Y-97366717D01*
X180436109Y-97374722D01*
X180331498Y-97528074D01*
X180276587Y-97573076D01*
X180206062Y-97581247D01*
X180142315Y-97549993D01*
X180121618Y-97525509D01*
X180040822Y-97400617D01*
X180040820Y-97400614D01*
X180038014Y-97396277D01*
X179887670Y-97231051D01*
X179883619Y-97227852D01*
X179883615Y-97227848D01*
X179716414Y-97095800D01*
X179716410Y-97095798D01*
X179712359Y-97092598D01*
X179692500Y-97081635D01*
X179660136Y-97063769D01*
X179516789Y-96984638D01*
X179511920Y-96982914D01*
X179511916Y-96982912D01*
X179311087Y-96911795D01*
X179311083Y-96911794D01*
X179306212Y-96910069D01*
X179301119Y-96909162D01*
X179301116Y-96909161D01*
X179091373Y-96871800D01*
X179091367Y-96871799D01*
X179086284Y-96870894D01*
X179012452Y-96869992D01*
X178868081Y-96868228D01*
X178868079Y-96868228D01*
X178862911Y-96868165D01*
X178642091Y-96901955D01*
X178429756Y-96971357D01*
X178231607Y-97074507D01*
X178227474Y-97077610D01*
X178227471Y-97077612D01*
X178057100Y-97205530D01*
X178052965Y-97208635D01*
X177990572Y-97273926D01*
X177972283Y-97293064D01*
X177910759Y-97328494D01*
X177839846Y-97325037D01*
X177782060Y-97283791D01*
X177763207Y-97250243D01*
X177721767Y-97139703D01*
X177718615Y-97131295D01*
X177631261Y-97014739D01*
X177514705Y-96927385D01*
X177378316Y-96876255D01*
X177316134Y-96869500D01*
X175519866Y-96869500D01*
X175457684Y-96876255D01*
X175321295Y-96927385D01*
X175204739Y-97014739D01*
X175117385Y-97131295D01*
X175066255Y-97267684D01*
X175059500Y-97329866D01*
X175059500Y-97393500D01*
X175039498Y-97461621D01*
X174985842Y-97508114D01*
X174933500Y-97519500D01*
X159152192Y-97519500D01*
X159084071Y-97499498D01*
X159037578Y-97445842D01*
X159027474Y-97375568D01*
X159043073Y-97330500D01*
X159073223Y-97278279D01*
X159073224Y-97278278D01*
X159076527Y-97272556D01*
X159135542Y-97090928D01*
X159137475Y-97072542D01*
X159154814Y-96907565D01*
X159155504Y-96901000D01*
X159143416Y-96785989D01*
X159136232Y-96717635D01*
X159136232Y-96717633D01*
X159135542Y-96711072D01*
X159076527Y-96529444D01*
X158981040Y-96364056D01*
X158853253Y-96222134D01*
X158754157Y-96150136D01*
X158704094Y-96113763D01*
X158704093Y-96113762D01*
X158698752Y-96109882D01*
X158692724Y-96107198D01*
X158692722Y-96107197D01*
X158530319Y-96034891D01*
X158530318Y-96034891D01*
X158524288Y-96032206D01*
X158430887Y-96012353D01*
X158343944Y-95993872D01*
X158343939Y-95993872D01*
X158337487Y-95992500D01*
X158146513Y-95992500D01*
X158140061Y-95993872D01*
X158140056Y-95993872D01*
X158053112Y-96012353D01*
X157959712Y-96032206D01*
X157953682Y-96034891D01*
X157953681Y-96034891D01*
X157791278Y-96107197D01*
X157791276Y-96107198D01*
X157785248Y-96109882D01*
X157779907Y-96113762D01*
X157779906Y-96113763D01*
X157729843Y-96150136D01*
X157630747Y-96222134D01*
X157502960Y-96364056D01*
X157407473Y-96529444D01*
X157348458Y-96711072D01*
X157347768Y-96717633D01*
X157347768Y-96717635D01*
X157340584Y-96785989D01*
X157328496Y-96901000D01*
X157329186Y-96907565D01*
X157346526Y-97072542D01*
X157348458Y-97090928D01*
X157407473Y-97272556D01*
X157410776Y-97278278D01*
X157410777Y-97278279D01*
X157440927Y-97330500D01*
X157457665Y-97399495D01*
X157434445Y-97466587D01*
X157378637Y-97510474D01*
X157331808Y-97519500D01*
X146452660Y-97519500D01*
X146384539Y-97499498D01*
X146363565Y-97482595D01*
X143777450Y-94896480D01*
X143771596Y-94890215D01*
X143769812Y-94888170D01*
X143733561Y-94846615D01*
X143681280Y-94809871D01*
X143675986Y-94805939D01*
X143631693Y-94771209D01*
X143625718Y-94766524D01*
X143618802Y-94763401D01*
X143616516Y-94762017D01*
X143601835Y-94753643D01*
X143599475Y-94752378D01*
X143593261Y-94748010D01*
X143551923Y-94731893D01*
X143495722Y-94688512D01*
X143471895Y-94621633D01*
X143488008Y-94552489D01*
X143538946Y-94503033D01*
X143597693Y-94488500D01*
X188341500Y-94488500D01*
X188409621Y-94508502D01*
X188456114Y-94562158D01*
X188467500Y-94614500D01*
X188467500Y-138936265D01*
X188447498Y-139004386D01*
X188393842Y-139050879D01*
X188323568Y-139060983D01*
X188258988Y-139031489D01*
X188227305Y-138989515D01*
X188162912Y-138851423D01*
X188162910Y-138851420D01*
X188160589Y-138846442D01*
X188039301Y-138673224D01*
X187889776Y-138523699D01*
X187716558Y-138402411D01*
X187711580Y-138400090D01*
X187711577Y-138400088D01*
X187529892Y-138315367D01*
X187529891Y-138315366D01*
X187524910Y-138313044D01*
X187519602Y-138311622D01*
X187519600Y-138311621D01*
X187325970Y-138259738D01*
X187325968Y-138259738D01*
X187320655Y-138258314D01*
X187110000Y-138239884D01*
X186899345Y-138258314D01*
X186894032Y-138259738D01*
X186894030Y-138259738D01*
X186700400Y-138311621D01*
X186700398Y-138311622D01*
X186695090Y-138313044D01*
X186690109Y-138315366D01*
X186690108Y-138315367D01*
X186508423Y-138400088D01*
X186508420Y-138400090D01*
X186503442Y-138402411D01*
X186330224Y-138523699D01*
X186180699Y-138673224D01*
X186059411Y-138846442D01*
X185970044Y-139038090D01*
X185968622Y-139043398D01*
X185968621Y-139043400D01*
X185916738Y-139237030D01*
X185915314Y-139242345D01*
X185896884Y-139453000D01*
X185915314Y-139663655D01*
X185916738Y-139668968D01*
X185916738Y-139668970D01*
X185966631Y-139855171D01*
X185970044Y-139867910D01*
X185972366Y-139872891D01*
X185972367Y-139872892D01*
X186050449Y-140040338D01*
X186059411Y-140059558D01*
X186180699Y-140232776D01*
X186330224Y-140382301D01*
X186503442Y-140503589D01*
X186508420Y-140505910D01*
X186508423Y-140505912D01*
X186522811Y-140512621D01*
X186695090Y-140592956D01*
X186700398Y-140594378D01*
X186700400Y-140594379D01*
X186894030Y-140646262D01*
X186894032Y-140646262D01*
X186899345Y-140647686D01*
X187110000Y-140666116D01*
X187320655Y-140647686D01*
X187325968Y-140646262D01*
X187325970Y-140646262D01*
X187519600Y-140594379D01*
X187519602Y-140594378D01*
X187524910Y-140592956D01*
X187697189Y-140512621D01*
X187711577Y-140505912D01*
X187711580Y-140505910D01*
X187716558Y-140503589D01*
X187889776Y-140382301D01*
X188039301Y-140232776D01*
X188160589Y-140059558D01*
X188169552Y-140040338D01*
X188227305Y-139916485D01*
X188274222Y-139863200D01*
X188342500Y-139843739D01*
X188410459Y-139864281D01*
X188456525Y-139918304D01*
X188467500Y-139969735D01*
X188467500Y-142241842D01*
X188447498Y-142309963D01*
X188393842Y-142356456D01*
X188341767Y-142367842D01*
X129031226Y-142493500D01*
X128650500Y-142493500D01*
X128582379Y-142473498D01*
X128535886Y-142419842D01*
X128524500Y-142367500D01*
X128524500Y-127496640D01*
X129107463Y-127496640D01*
X129125163Y-127677160D01*
X129182418Y-127849273D01*
X129186065Y-127855295D01*
X129186066Y-127855297D01*
X129251139Y-127962745D01*
X129276380Y-128004424D01*
X129281269Y-128009487D01*
X129281270Y-128009488D01*
X129326244Y-128056059D01*
X129402382Y-128134902D01*
X129554159Y-128234222D01*
X129560763Y-128236678D01*
X129560765Y-128236679D01*
X129717558Y-128294990D01*
X129717560Y-128294990D01*
X129724168Y-128297448D01*
X129807995Y-128308633D01*
X129896980Y-128320507D01*
X129896984Y-128320507D01*
X129903961Y-128321438D01*
X129910972Y-128320800D01*
X129910976Y-128320800D01*
X130053459Y-128307832D01*
X130084600Y-128304998D01*
X130091302Y-128302820D01*
X130091304Y-128302820D01*
X130250409Y-128251124D01*
X130250412Y-128251123D01*
X130257108Y-128248947D01*
X130281727Y-128234271D01*
X130346245Y-128216500D01*
X139735340Y-128216500D01*
X139803461Y-128236502D01*
X139824435Y-128253405D01*
X140169056Y-128598026D01*
X140187736Y-128621849D01*
X140198380Y-128639424D01*
X140203269Y-128644487D01*
X140203270Y-128644488D01*
X140236096Y-128678480D01*
X140324382Y-128769902D01*
X140330274Y-128773757D01*
X140330278Y-128773761D01*
X140361374Y-128794109D01*
X140381476Y-128810446D01*
X141210550Y-129639520D01*
X141216404Y-129645785D01*
X141254439Y-129689385D01*
X141260657Y-129693755D01*
X141306697Y-129726112D01*
X141311993Y-129730045D01*
X141362282Y-129769477D01*
X141369204Y-129772602D01*
X141371452Y-129773964D01*
X141386185Y-129782368D01*
X141388524Y-129783622D01*
X141394739Y-129787990D01*
X141401815Y-129790749D01*
X141401819Y-129790751D01*
X141454274Y-129811202D01*
X141460352Y-129813757D01*
X141518574Y-129840045D01*
X141526045Y-129841429D01*
X141528599Y-129842230D01*
X141544878Y-129846867D01*
X141547433Y-129847523D01*
X141554509Y-129850282D01*
X141582962Y-129854028D01*
X141617851Y-129858621D01*
X141624367Y-129859653D01*
X141666706Y-129867500D01*
X141687187Y-129871296D01*
X141694767Y-129870859D01*
X141694768Y-129870859D01*
X141749398Y-129867709D01*
X141756651Y-129867500D01*
X147905800Y-129867500D01*
X147962609Y-129881033D01*
X147963260Y-129881362D01*
X147969159Y-129885222D01*
X147975767Y-129887680D01*
X147975768Y-129887680D01*
X148132558Y-129945990D01*
X148132560Y-129945990D01*
X148139168Y-129948448D01*
X148222995Y-129959633D01*
X148311980Y-129971507D01*
X148311984Y-129971507D01*
X148318961Y-129972438D01*
X148325972Y-129971800D01*
X148325976Y-129971800D01*
X148468459Y-129958832D01*
X148499600Y-129955998D01*
X148506302Y-129953820D01*
X148506304Y-129953820D01*
X148665409Y-129902124D01*
X148665412Y-129902123D01*
X148672108Y-129899947D01*
X148696727Y-129885271D01*
X148761245Y-129867500D01*
X153451340Y-129867500D01*
X153519461Y-129887502D01*
X153540435Y-129904405D01*
X154268532Y-130632502D01*
X154298995Y-130681825D01*
X154328418Y-130770273D01*
X154332065Y-130776295D01*
X154332066Y-130776297D01*
X154380622Y-130856472D01*
X154422380Y-130925424D01*
X154548382Y-131055902D01*
X154700159Y-131155222D01*
X154706763Y-131157678D01*
X154706765Y-131157679D01*
X154819439Y-131199582D01*
X154864614Y-131228584D01*
X162076251Y-138440222D01*
X162110277Y-138502534D01*
X162110915Y-138552231D01*
X162109989Y-138555570D01*
X162086251Y-138777695D01*
X162099110Y-139000715D01*
X162100247Y-139005761D01*
X162100248Y-139005767D01*
X162114606Y-139069475D01*
X162148222Y-139218639D01*
X162232266Y-139425616D01*
X162283942Y-139509944D01*
X162346291Y-139611688D01*
X162348987Y-139616088D01*
X162495250Y-139784938D01*
X162667126Y-139927632D01*
X162860000Y-140040338D01*
X163068692Y-140120030D01*
X163073760Y-140121061D01*
X163073763Y-140121062D01*
X163133891Y-140133295D01*
X163287597Y-140164567D01*
X163292772Y-140164757D01*
X163292774Y-140164757D01*
X163505673Y-140172564D01*
X163505677Y-140172564D01*
X163510837Y-140172753D01*
X163515957Y-140172097D01*
X163515959Y-140172097D01*
X163713588Y-140146780D01*
X163783698Y-140157964D01*
X163818693Y-140182664D01*
X165340557Y-141704528D01*
X165346411Y-141710793D01*
X165384439Y-141754385D01*
X165436729Y-141791136D01*
X165441971Y-141795028D01*
X165492282Y-141834476D01*
X165499201Y-141837600D01*
X165501493Y-141838988D01*
X165516165Y-141847357D01*
X165518525Y-141848622D01*
X165524739Y-141852990D01*
X165531818Y-141855750D01*
X165531820Y-141855751D01*
X165584275Y-141876202D01*
X165590344Y-141878753D01*
X165648573Y-141905045D01*
X165656046Y-141906430D01*
X165658612Y-141907234D01*
X165674835Y-141911855D01*
X165677427Y-141912520D01*
X165684509Y-141915282D01*
X165692044Y-141916274D01*
X165747861Y-141923622D01*
X165754377Y-141924654D01*
X165792770Y-141931770D01*
X165817186Y-141936295D01*
X165824766Y-141935858D01*
X165824767Y-141935858D01*
X165879380Y-141932709D01*
X165886633Y-141932500D01*
X171802088Y-141932500D01*
X171810658Y-141932792D01*
X171860776Y-141936209D01*
X171860780Y-141936209D01*
X171868352Y-141936725D01*
X171875829Y-141935420D01*
X171875830Y-141935420D01*
X171902308Y-141930799D01*
X171931303Y-141925738D01*
X171937821Y-141924777D01*
X172001242Y-141917102D01*
X172008343Y-141914419D01*
X172010952Y-141913778D01*
X172027262Y-141909315D01*
X172029798Y-141908550D01*
X172037284Y-141907243D01*
X172095800Y-141881556D01*
X172101904Y-141879065D01*
X172154548Y-141859173D01*
X172154549Y-141859172D01*
X172161656Y-141856487D01*
X172167919Y-141852183D01*
X172170285Y-141850946D01*
X172185097Y-141842701D01*
X172187351Y-141841368D01*
X172194305Y-141838315D01*
X172245002Y-141799413D01*
X172250332Y-141795541D01*
X172296720Y-141763661D01*
X172296725Y-141763656D01*
X172302981Y-141759357D01*
X172344436Y-141712829D01*
X172349416Y-141707554D01*
X174682268Y-139374703D01*
X174744580Y-139340677D01*
X174815396Y-139345742D01*
X174872231Y-139388289D01*
X174896384Y-139453044D01*
X174896884Y-139453000D01*
X174915314Y-139663655D01*
X174916738Y-139668968D01*
X174916738Y-139668970D01*
X174966631Y-139855171D01*
X174970044Y-139867910D01*
X174972366Y-139872891D01*
X174972367Y-139872892D01*
X175050449Y-140040338D01*
X175059411Y-140059558D01*
X175180699Y-140232776D01*
X175330224Y-140382301D01*
X175503442Y-140503589D01*
X175508420Y-140505910D01*
X175508423Y-140505912D01*
X175522811Y-140512621D01*
X175695090Y-140592956D01*
X175700398Y-140594378D01*
X175700400Y-140594379D01*
X175894030Y-140646262D01*
X175894032Y-140646262D01*
X175899345Y-140647686D01*
X176110000Y-140666116D01*
X176320655Y-140647686D01*
X176325968Y-140646262D01*
X176325970Y-140646262D01*
X176519600Y-140594379D01*
X176519602Y-140594378D01*
X176524910Y-140592956D01*
X176697189Y-140512621D01*
X176711577Y-140505912D01*
X176711580Y-140505910D01*
X176716558Y-140503589D01*
X176889776Y-140382301D01*
X177039301Y-140232776D01*
X177160589Y-140059558D01*
X177169552Y-140040338D01*
X177247633Y-139872892D01*
X177247634Y-139872891D01*
X177249956Y-139867910D01*
X177253370Y-139855171D01*
X177303262Y-139668970D01*
X177303262Y-139668968D01*
X177304686Y-139663655D01*
X177323116Y-139453000D01*
X177304686Y-139242345D01*
X177303262Y-139237030D01*
X177251379Y-139043400D01*
X177251378Y-139043398D01*
X177249956Y-139038090D01*
X177160589Y-138846442D01*
X177039301Y-138673224D01*
X176889776Y-138523699D01*
X176716558Y-138402411D01*
X176711580Y-138400090D01*
X176711577Y-138400088D01*
X176529892Y-138315367D01*
X176529891Y-138315366D01*
X176524910Y-138313044D01*
X176519602Y-138311622D01*
X176519600Y-138311621D01*
X176325970Y-138259738D01*
X176325968Y-138259738D01*
X176320655Y-138258314D01*
X176110000Y-138239884D01*
X175899345Y-138258314D01*
X175894032Y-138259738D01*
X175894030Y-138259738D01*
X175700400Y-138311621D01*
X175700398Y-138311622D01*
X175695090Y-138313044D01*
X175690109Y-138315366D01*
X175690108Y-138315367D01*
X175508423Y-138400088D01*
X175508420Y-138400090D01*
X175503442Y-138402411D01*
X175330224Y-138523699D01*
X175294595Y-138559328D01*
X175232283Y-138593354D01*
X175161468Y-138588289D01*
X175104632Y-138545742D01*
X175079821Y-138479222D01*
X175079500Y-138470233D01*
X175079500Y-131251134D01*
X176851500Y-131251134D01*
X176858255Y-131313316D01*
X176909385Y-131449705D01*
X176996739Y-131566261D01*
X177113295Y-131653615D01*
X177249684Y-131704745D01*
X177311866Y-131711500D01*
X180908134Y-131711500D01*
X180970316Y-131704745D01*
X181106705Y-131653615D01*
X181223261Y-131566261D01*
X181310615Y-131449705D01*
X181361745Y-131313316D01*
X181368500Y-131251134D01*
X181368500Y-131221856D01*
X182706601Y-131221856D01*
X182713059Y-131231216D01*
X182729361Y-131245512D01*
X182735901Y-131250530D01*
X182975144Y-131410387D01*
X182982281Y-131414508D01*
X183240349Y-131541772D01*
X183247953Y-131544922D01*
X183520420Y-131637412D01*
X183528383Y-131639546D01*
X183810600Y-131695683D01*
X183818751Y-131696756D01*
X184105881Y-131715575D01*
X184114119Y-131715575D01*
X184401249Y-131696756D01*
X184409400Y-131695683D01*
X184691617Y-131639546D01*
X184699580Y-131637412D01*
X184972047Y-131544922D01*
X184979651Y-131541772D01*
X185237719Y-131414508D01*
X185244856Y-131410387D01*
X185484099Y-131250530D01*
X185490639Y-131245512D01*
X185505074Y-131232853D01*
X185513472Y-131219614D01*
X185507638Y-131209849D01*
X184122810Y-129825020D01*
X184108869Y-129817408D01*
X184107034Y-129817539D01*
X184100420Y-129821790D01*
X182714116Y-131208095D01*
X182706601Y-131221856D01*
X181368500Y-131221856D01*
X181368500Y-129457119D01*
X181847425Y-129457119D01*
X181866244Y-129744249D01*
X181867317Y-129752400D01*
X181923454Y-130034617D01*
X181925588Y-130042580D01*
X182018078Y-130315047D01*
X182021228Y-130322651D01*
X182148492Y-130580718D01*
X182152613Y-130587855D01*
X182312470Y-130827099D01*
X182317488Y-130833639D01*
X182330147Y-130848074D01*
X182343386Y-130856472D01*
X182353151Y-130850638D01*
X183737980Y-129465810D01*
X183744357Y-129454131D01*
X184474408Y-129454131D01*
X184474539Y-129455966D01*
X184478790Y-129462580D01*
X185865095Y-130848884D01*
X185878856Y-130856399D01*
X185888216Y-130849941D01*
X185902512Y-130833639D01*
X185907530Y-130827099D01*
X186067387Y-130587855D01*
X186071508Y-130580718D01*
X186198772Y-130322651D01*
X186201922Y-130315047D01*
X186294412Y-130042580D01*
X186296546Y-130034617D01*
X186352683Y-129752400D01*
X186353756Y-129744249D01*
X186372575Y-129457119D01*
X186372575Y-129448881D01*
X186353756Y-129161751D01*
X186352683Y-129153600D01*
X186296546Y-128871383D01*
X186294412Y-128863420D01*
X186201922Y-128590953D01*
X186198772Y-128583349D01*
X186071508Y-128325282D01*
X186067387Y-128318145D01*
X185907530Y-128078901D01*
X185902512Y-128072361D01*
X185889853Y-128057926D01*
X185876614Y-128049528D01*
X185866849Y-128055362D01*
X184482020Y-129440190D01*
X184474408Y-129454131D01*
X183744357Y-129454131D01*
X183745592Y-129451869D01*
X183745461Y-129450034D01*
X183741210Y-129443420D01*
X182354905Y-128057116D01*
X182341144Y-128049601D01*
X182331784Y-128056059D01*
X182317488Y-128072361D01*
X182312470Y-128078901D01*
X182152613Y-128318145D01*
X182148492Y-128325282D01*
X182021228Y-128583349D01*
X182018078Y-128590953D01*
X181925588Y-128863420D01*
X181923454Y-128871383D01*
X181867317Y-129153600D01*
X181866244Y-129161751D01*
X181847425Y-129448881D01*
X181847425Y-129457119D01*
X181368500Y-129457119D01*
X181368500Y-127686386D01*
X182706528Y-127686386D01*
X182712362Y-127696151D01*
X184097190Y-129080980D01*
X184111131Y-129088592D01*
X184112966Y-129088461D01*
X184119580Y-129084210D01*
X185505884Y-127697905D01*
X185513399Y-127684144D01*
X185506941Y-127674784D01*
X185490639Y-127660488D01*
X185484099Y-127655470D01*
X185244856Y-127495613D01*
X185237719Y-127491492D01*
X184979651Y-127364228D01*
X184972047Y-127361078D01*
X184699580Y-127268588D01*
X184691617Y-127266454D01*
X184409400Y-127210317D01*
X184401249Y-127209244D01*
X184114119Y-127190425D01*
X184105881Y-127190425D01*
X183818751Y-127209244D01*
X183810600Y-127210317D01*
X183528383Y-127266454D01*
X183520420Y-127268588D01*
X183247953Y-127361078D01*
X183240349Y-127364228D01*
X182982282Y-127491492D01*
X182975145Y-127495613D01*
X182735901Y-127655470D01*
X182729361Y-127660488D01*
X182714926Y-127673147D01*
X182706528Y-127686386D01*
X181368500Y-127686386D01*
X181368500Y-127654866D01*
X181361745Y-127592684D01*
X181310615Y-127456295D01*
X181223261Y-127339739D01*
X181106705Y-127252385D01*
X180970316Y-127201255D01*
X180908134Y-127194500D01*
X177311866Y-127194500D01*
X177249684Y-127201255D01*
X177113295Y-127252385D01*
X176996739Y-127339739D01*
X176909385Y-127456295D01*
X176858255Y-127592684D01*
X176851500Y-127654866D01*
X176851500Y-131251134D01*
X175079500Y-131251134D01*
X175079500Y-108168660D01*
X175099502Y-108100539D01*
X175116405Y-108079565D01*
X175571788Y-107624182D01*
X175634100Y-107590156D01*
X175670840Y-107588144D01*
X175672513Y-107588500D01*
X175863487Y-107588500D01*
X175869939Y-107587128D01*
X175869944Y-107587128D01*
X175956888Y-107568647D01*
X176050288Y-107548794D01*
X176058192Y-107545275D01*
X176218724Y-107473802D01*
X176218725Y-107473801D01*
X176224752Y-107471118D01*
X176230094Y-107467237D01*
X176230096Y-107467236D01*
X176248234Y-107454058D01*
X176315102Y-107430199D01*
X176384253Y-107446278D01*
X176396343Y-107454048D01*
X176454248Y-107496118D01*
X176460276Y-107498802D01*
X176460278Y-107498803D01*
X176622681Y-107571109D01*
X176628712Y-107573794D01*
X176705689Y-107590156D01*
X176809056Y-107612128D01*
X176809061Y-107612128D01*
X176815513Y-107613500D01*
X177006487Y-107613500D01*
X177012939Y-107612128D01*
X177012944Y-107612128D01*
X177116311Y-107590156D01*
X177193288Y-107573794D01*
X177199319Y-107571109D01*
X177361722Y-107498803D01*
X177361724Y-107498802D01*
X177367752Y-107496118D01*
X177373093Y-107492237D01*
X177378811Y-107488936D01*
X177380103Y-107491175D01*
X177436092Y-107471221D01*
X177494488Y-107481911D01*
X177638677Y-107546108D01*
X177638685Y-107546111D01*
X177644712Y-107548794D01*
X177738113Y-107568647D01*
X177825056Y-107587128D01*
X177825061Y-107587128D01*
X177831513Y-107588500D01*
X178022487Y-107588500D01*
X178028939Y-107587128D01*
X178028944Y-107587128D01*
X178115888Y-107568647D01*
X178209288Y-107548794D01*
X178217192Y-107545275D01*
X178377722Y-107473803D01*
X178377724Y-107473802D01*
X178383752Y-107471118D01*
X178407235Y-107454057D01*
X178481296Y-107400248D01*
X178538253Y-107358866D01*
X178666040Y-107216944D01*
X178761527Y-107051556D01*
X178820542Y-106869928D01*
X178840504Y-106680000D01*
X178820542Y-106490072D01*
X178761527Y-106308444D01*
X178666040Y-106143056D01*
X178538253Y-106001134D01*
X178423505Y-105917764D01*
X178389094Y-105892763D01*
X178389093Y-105892762D01*
X178383752Y-105888882D01*
X178377724Y-105886198D01*
X178377722Y-105886197D01*
X178215319Y-105813891D01*
X178215318Y-105813891D01*
X178209288Y-105811206D01*
X178115888Y-105791353D01*
X178028944Y-105772872D01*
X178028939Y-105772872D01*
X178022487Y-105771500D01*
X177831513Y-105771500D01*
X177825061Y-105772872D01*
X177825056Y-105772872D01*
X177738113Y-105791353D01*
X177644712Y-105811206D01*
X177638682Y-105813891D01*
X177638681Y-105813891D01*
X177476278Y-105886197D01*
X177476276Y-105886198D01*
X177470248Y-105888882D01*
X177464907Y-105892763D01*
X177459189Y-105896064D01*
X177457897Y-105893825D01*
X177401908Y-105913779D01*
X177343512Y-105903089D01*
X177199323Y-105838892D01*
X177199315Y-105838889D01*
X177193288Y-105836206D01*
X177088305Y-105813891D01*
X177012944Y-105797872D01*
X177012939Y-105797872D01*
X177006487Y-105796500D01*
X176815513Y-105796500D01*
X176809061Y-105797872D01*
X176809056Y-105797872D01*
X176733695Y-105813891D01*
X176628712Y-105836206D01*
X176622682Y-105838891D01*
X176622681Y-105838891D01*
X176460278Y-105911197D01*
X176460276Y-105911198D01*
X176454248Y-105913882D01*
X176448905Y-105917764D01*
X176430767Y-105930942D01*
X176363899Y-105954801D01*
X176294748Y-105938722D01*
X176282644Y-105930943D01*
X176230094Y-105892763D01*
X176230093Y-105892762D01*
X176224752Y-105888882D01*
X176218724Y-105886198D01*
X176218722Y-105886197D01*
X176056319Y-105813891D01*
X176056318Y-105813891D01*
X176050288Y-105811206D01*
X175956888Y-105791353D01*
X175869944Y-105772872D01*
X175869939Y-105772872D01*
X175863487Y-105771500D01*
X175672513Y-105771500D01*
X175666061Y-105772872D01*
X175666056Y-105772872D01*
X175579113Y-105791353D01*
X175485712Y-105811206D01*
X175479682Y-105813891D01*
X175479681Y-105813891D01*
X175317278Y-105886197D01*
X175317276Y-105886198D01*
X175311248Y-105888882D01*
X175305907Y-105892762D01*
X175305906Y-105892763D01*
X175271495Y-105917764D01*
X175156747Y-106001134D01*
X175028960Y-106143056D01*
X175025659Y-106148774D01*
X175025656Y-106148778D01*
X175009914Y-106176044D01*
X174989890Y-106202140D01*
X173890480Y-107301550D01*
X173884215Y-107307404D01*
X173840615Y-107345439D01*
X173803872Y-107397719D01*
X173799939Y-107403014D01*
X173760524Y-107453282D01*
X173757401Y-107460198D01*
X173756017Y-107462484D01*
X173747643Y-107477165D01*
X173746378Y-107479525D01*
X173742010Y-107485739D01*
X173739250Y-107492818D01*
X173739249Y-107492820D01*
X173718798Y-107545275D01*
X173716247Y-107551344D01*
X173689955Y-107609573D01*
X173688571Y-107617040D01*
X173687770Y-107619595D01*
X173683141Y-107635848D01*
X173682478Y-107638428D01*
X173679718Y-107645509D01*
X173678727Y-107653040D01*
X173678726Y-107653042D01*
X173671379Y-107708852D01*
X173670348Y-107715359D01*
X173658704Y-107778186D01*
X173659141Y-107785766D01*
X173659141Y-107785767D01*
X173662291Y-107840392D01*
X173662500Y-107847646D01*
X173662500Y-138338340D01*
X173642498Y-138406461D01*
X173625595Y-138427435D01*
X172642095Y-139410935D01*
X172579783Y-139444961D01*
X172508968Y-139439896D01*
X172452132Y-139397349D01*
X172427321Y-139330829D01*
X172427000Y-139321840D01*
X172427000Y-139083115D01*
X172422525Y-139067876D01*
X172421135Y-139066671D01*
X172413452Y-139065000D01*
X171341115Y-139065000D01*
X171325876Y-139069475D01*
X171324671Y-139070865D01*
X171323000Y-139078548D01*
X171323000Y-140150884D01*
X171327475Y-140166123D01*
X171328865Y-140167328D01*
X171336548Y-140168999D01*
X171579841Y-140168999D01*
X171647962Y-140189001D01*
X171694455Y-140242657D01*
X171704559Y-140312931D01*
X171675065Y-140377511D01*
X171668936Y-140384094D01*
X171574435Y-140478595D01*
X171512123Y-140512621D01*
X171485340Y-140515500D01*
X166207660Y-140515500D01*
X166139539Y-140495498D01*
X166118565Y-140478595D01*
X166021228Y-140381258D01*
X165987202Y-140318946D01*
X165992267Y-140248131D01*
X166034814Y-140191295D01*
X166094313Y-140167184D01*
X166267288Y-140145025D01*
X166267289Y-140145025D01*
X166272416Y-140144368D01*
X166309324Y-140133295D01*
X166481429Y-140081661D01*
X166481434Y-140081659D01*
X166486384Y-140080174D01*
X166686994Y-139981896D01*
X166868860Y-139852173D01*
X167027096Y-139694489D01*
X167086594Y-139611689D01*
X167157453Y-139513077D01*
X167158776Y-139514028D01*
X167205645Y-139470857D01*
X167275580Y-139458625D01*
X167341026Y-139486144D01*
X167368875Y-139517994D01*
X167428987Y-139616088D01*
X167575250Y-139784938D01*
X167747126Y-139927632D01*
X167940000Y-140040338D01*
X168148692Y-140120030D01*
X168153760Y-140121061D01*
X168153763Y-140121062D01*
X168213891Y-140133295D01*
X168367597Y-140164567D01*
X168372772Y-140164757D01*
X168372774Y-140164757D01*
X168585673Y-140172564D01*
X168585677Y-140172564D01*
X168590837Y-140172753D01*
X168595957Y-140172097D01*
X168595959Y-140172097D01*
X168807288Y-140145025D01*
X168807289Y-140145025D01*
X168812416Y-140144368D01*
X168849324Y-140133295D01*
X169021429Y-140081661D01*
X169021434Y-140081659D01*
X169026384Y-140080174D01*
X169226994Y-139981896D01*
X169408860Y-139852173D01*
X169476331Y-139784938D01*
X169517479Y-139743933D01*
X169579851Y-139710017D01*
X169650658Y-139715205D01*
X169707419Y-139757851D01*
X169724401Y-139788954D01*
X169765676Y-139899054D01*
X169774214Y-139914649D01*
X169850715Y-140016724D01*
X169863276Y-140029285D01*
X169965351Y-140105786D01*
X169980946Y-140114324D01*
X170101394Y-140159478D01*
X170116649Y-140163105D01*
X170167514Y-140168631D01*
X170174328Y-140169000D01*
X170796885Y-140169000D01*
X170812124Y-140164525D01*
X170813329Y-140163135D01*
X170815000Y-140155452D01*
X170815000Y-138538885D01*
X171323000Y-138538885D01*
X171327475Y-138554124D01*
X171328865Y-138555329D01*
X171336548Y-138557000D01*
X172408884Y-138557000D01*
X172424123Y-138552525D01*
X172425328Y-138551135D01*
X172426999Y-138543452D01*
X172426999Y-137916331D01*
X172426629Y-137909510D01*
X172421105Y-137858648D01*
X172417479Y-137843396D01*
X172372324Y-137722946D01*
X172363786Y-137707351D01*
X172287285Y-137605276D01*
X172274724Y-137592715D01*
X172172649Y-137516214D01*
X172157054Y-137507676D01*
X172036606Y-137462522D01*
X172021351Y-137458895D01*
X171970486Y-137453369D01*
X171963672Y-137453000D01*
X171341115Y-137453000D01*
X171325876Y-137457475D01*
X171324671Y-137458865D01*
X171323000Y-137466548D01*
X171323000Y-138538885D01*
X170815000Y-138538885D01*
X170815000Y-137471116D01*
X170810525Y-137455877D01*
X170809135Y-137454672D01*
X170801452Y-137453001D01*
X170174331Y-137453001D01*
X170167510Y-137453371D01*
X170116648Y-137458895D01*
X170101396Y-137462521D01*
X169980946Y-137507676D01*
X169965351Y-137516214D01*
X169863276Y-137592715D01*
X169850715Y-137605276D01*
X169774214Y-137707351D01*
X169765676Y-137722946D01*
X169724297Y-137833322D01*
X169681655Y-137890087D01*
X169615093Y-137914786D01*
X169545744Y-137899578D01*
X169513121Y-137873891D01*
X169462151Y-137817876D01*
X169462148Y-137817873D01*
X169458670Y-137814051D01*
X169454619Y-137810852D01*
X169454615Y-137810848D01*
X169287414Y-137678800D01*
X169287410Y-137678798D01*
X169283359Y-137675598D01*
X169087789Y-137567638D01*
X169082920Y-137565914D01*
X169082916Y-137565912D01*
X168882087Y-137494795D01*
X168882083Y-137494794D01*
X168877212Y-137493069D01*
X168872119Y-137492162D01*
X168872116Y-137492161D01*
X168662373Y-137454800D01*
X168662367Y-137454799D01*
X168657284Y-137453894D01*
X168583452Y-137452992D01*
X168439081Y-137451228D01*
X168439079Y-137451228D01*
X168433911Y-137451165D01*
X168213091Y-137484955D01*
X168208178Y-137486561D01*
X168208177Y-137486561D01*
X168200528Y-137489061D01*
X168129564Y-137491209D01*
X168072293Y-137458389D01*
X144688405Y-114074500D01*
X144654379Y-114012188D01*
X144651500Y-113985405D01*
X144651500Y-113235767D01*
X144652027Y-113224584D01*
X144653702Y-113217091D01*
X144651562Y-113149014D01*
X144651500Y-113145055D01*
X144651500Y-113117144D01*
X144650995Y-113113144D01*
X144650062Y-113101301D01*
X144648922Y-113065029D01*
X144648673Y-113057110D01*
X144643022Y-113037658D01*
X144639014Y-113018306D01*
X144637467Y-113006063D01*
X144636474Y-112998203D01*
X144633556Y-112990832D01*
X144620200Y-112957097D01*
X144616355Y-112945870D01*
X144609565Y-112922500D01*
X144604018Y-112903407D01*
X144593707Y-112885972D01*
X144585012Y-112868224D01*
X144577552Y-112849383D01*
X144551564Y-112813613D01*
X144545048Y-112803693D01*
X144526580Y-112772465D01*
X144526578Y-112772462D01*
X144522542Y-112765638D01*
X144508221Y-112751317D01*
X144495380Y-112736283D01*
X144488131Y-112726306D01*
X144483472Y-112719893D01*
X144449395Y-112691702D01*
X144440616Y-112683712D01*
X143822122Y-112065218D01*
X143788096Y-112002906D01*
X143785907Y-111989293D01*
X143785852Y-111988763D01*
X143773251Y-111868872D01*
X143769232Y-111830635D01*
X143769232Y-111830633D01*
X143768542Y-111824072D01*
X143709527Y-111642444D01*
X143614040Y-111477056D01*
X143486253Y-111335134D01*
X143331752Y-111222882D01*
X143325724Y-111220198D01*
X143325722Y-111220197D01*
X143163319Y-111147891D01*
X143163318Y-111147891D01*
X143157288Y-111145206D01*
X143063888Y-111125353D01*
X142976944Y-111106872D01*
X142976939Y-111106872D01*
X142970487Y-111105500D01*
X142779513Y-111105500D01*
X142773061Y-111106872D01*
X142773056Y-111106872D01*
X142686112Y-111125353D01*
X142592712Y-111145206D01*
X142586682Y-111147891D01*
X142586681Y-111147891D01*
X142424278Y-111220197D01*
X142424276Y-111220198D01*
X142418248Y-111222882D01*
X142263747Y-111335134D01*
X142135960Y-111477056D01*
X142040473Y-111642444D01*
X141981458Y-111824072D01*
X141980768Y-111830635D01*
X141979394Y-111837100D01*
X141976640Y-111836515D01*
X141954367Y-111890706D01*
X141896160Y-111931357D01*
X141825216Y-111934085D01*
X141804793Y-111927021D01*
X141766319Y-111909891D01*
X141766318Y-111909891D01*
X141760288Y-111907206D01*
X141666887Y-111887353D01*
X141579944Y-111868872D01*
X141579939Y-111868872D01*
X141573487Y-111867500D01*
X141382513Y-111867500D01*
X141376061Y-111868872D01*
X141376056Y-111868872D01*
X141289113Y-111887353D01*
X141195712Y-111907206D01*
X141189682Y-111909891D01*
X141189681Y-111909891D01*
X141027278Y-111982197D01*
X141027276Y-111982198D01*
X141021248Y-111984882D01*
X140866747Y-112097134D01*
X140738960Y-112239056D01*
X140643473Y-112404444D01*
X140584458Y-112586072D01*
X140564496Y-112776000D01*
X140565186Y-112782565D01*
X140579894Y-112922500D01*
X140584458Y-112965928D01*
X140643473Y-113147556D01*
X140738960Y-113312944D01*
X140866747Y-113454866D01*
X141021248Y-113567118D01*
X141027276Y-113569802D01*
X141027278Y-113569803D01*
X141195712Y-113644794D01*
X141194889Y-113646641D01*
X141212621Y-113658764D01*
X141232523Y-113654123D01*
X141251607Y-113656675D01*
X141376056Y-113683128D01*
X141376061Y-113683128D01*
X141382513Y-113684500D01*
X141438406Y-113684500D01*
X141506527Y-113704502D01*
X141527501Y-113721405D01*
X142077595Y-114271499D01*
X142111621Y-114333811D01*
X142114500Y-114360594D01*
X142114500Y-115491233D01*
X142113973Y-115502416D01*
X142112298Y-115509909D01*
X142112547Y-115517835D01*
X142112547Y-115517836D01*
X142114438Y-115577986D01*
X142114500Y-115581945D01*
X142114500Y-115609856D01*
X142114997Y-115613790D01*
X142114997Y-115613791D01*
X142115005Y-115613856D01*
X142115938Y-115625693D01*
X142117327Y-115669889D01*
X142122978Y-115689339D01*
X142126987Y-115708700D01*
X142129526Y-115728797D01*
X142132445Y-115736168D01*
X142132445Y-115736170D01*
X142145804Y-115769912D01*
X142149649Y-115781142D01*
X142161982Y-115823593D01*
X142166015Y-115830412D01*
X142166017Y-115830417D01*
X142172293Y-115841028D01*
X142180988Y-115858776D01*
X142188448Y-115877617D01*
X142193110Y-115884033D01*
X142193110Y-115884034D01*
X142214436Y-115913387D01*
X142220952Y-115923307D01*
X142237330Y-115951000D01*
X142243458Y-115961362D01*
X142257779Y-115975683D01*
X142270619Y-115990716D01*
X142282528Y-116007107D01*
X142288634Y-116012158D01*
X142316605Y-116035298D01*
X142325384Y-116043288D01*
X163519086Y-137236990D01*
X163553112Y-137299302D01*
X163548047Y-137370117D01*
X163505500Y-137426953D01*
X163438980Y-137451764D01*
X163428459Y-137452076D01*
X163380962Y-137451495D01*
X163359080Y-137451228D01*
X163359078Y-137451228D01*
X163353911Y-137451165D01*
X163189059Y-137476391D01*
X163118698Y-137466923D01*
X163080906Y-137440936D01*
X155865673Y-130225703D01*
X155835777Y-130178046D01*
X155800745Y-130077448D01*
X155778957Y-130042580D01*
X155708359Y-129929598D01*
X155704626Y-129923624D01*
X155668932Y-129887680D01*
X155581778Y-129799915D01*
X155581774Y-129799912D01*
X155576815Y-129794918D01*
X155565899Y-129787990D01*
X155496973Y-129744249D01*
X155423666Y-129697727D01*
X155316908Y-129659712D01*
X155270078Y-129630108D01*
X154318450Y-128678480D01*
X154312596Y-128672215D01*
X154283990Y-128639424D01*
X154274561Y-128628615D01*
X154222280Y-128591871D01*
X154216986Y-128587939D01*
X154172693Y-128553209D01*
X154166718Y-128548524D01*
X154159802Y-128545401D01*
X154157516Y-128544017D01*
X154142835Y-128535643D01*
X154140475Y-128534378D01*
X154134261Y-128530010D01*
X154127182Y-128527250D01*
X154127180Y-128527249D01*
X154074725Y-128506798D01*
X154068656Y-128504247D01*
X154010427Y-128477955D01*
X154002960Y-128476571D01*
X154000405Y-128475770D01*
X153984152Y-128471141D01*
X153981572Y-128470478D01*
X153974491Y-128467718D01*
X153966960Y-128466727D01*
X153966958Y-128466726D01*
X153937339Y-128462827D01*
X153911139Y-128459378D01*
X153904641Y-128458348D01*
X153841814Y-128446704D01*
X153834234Y-128447141D01*
X153834233Y-128447141D01*
X153779608Y-128450291D01*
X153772354Y-128450500D01*
X148765158Y-128450500D01*
X148705624Y-128433205D01*
X148704948Y-128434590D01*
X148698609Y-128431498D01*
X148692666Y-128427727D01*
X148678880Y-128422818D01*
X148528425Y-128369243D01*
X148528420Y-128369242D01*
X148521790Y-128366881D01*
X148514802Y-128366048D01*
X148514799Y-128366047D01*
X148391698Y-128351368D01*
X148341680Y-128345404D01*
X148334677Y-128346140D01*
X148334676Y-128346140D01*
X148168288Y-128363628D01*
X148168286Y-128363629D01*
X148161288Y-128364364D01*
X148071094Y-128395068D01*
X147996249Y-128420547D01*
X147996246Y-128420548D01*
X147989579Y-128422818D01*
X147983576Y-128426511D01*
X147983574Y-128426512D01*
X147974949Y-128431818D01*
X147908928Y-128450500D01*
X142077662Y-128450500D01*
X142009541Y-128430498D01*
X141988567Y-128413596D01*
X141680066Y-128105096D01*
X141646041Y-128042783D01*
X141643946Y-128030045D01*
X141637182Y-127969744D01*
X141636397Y-127962745D01*
X141576745Y-127791448D01*
X141480626Y-127637624D01*
X141428651Y-127585285D01*
X141357778Y-127513915D01*
X141357774Y-127513912D01*
X141352815Y-127508918D01*
X141199666Y-127411727D01*
X141170463Y-127401328D01*
X141035425Y-127353243D01*
X141035420Y-127353242D01*
X141028790Y-127350881D01*
X140969030Y-127343755D01*
X140955238Y-127342110D01*
X140889965Y-127314182D01*
X140881063Y-127306092D01*
X140602435Y-127027465D01*
X140596581Y-127021198D01*
X140563556Y-126983340D01*
X140563553Y-126983337D01*
X140558561Y-126977615D01*
X140506280Y-126940871D01*
X140500986Y-126936939D01*
X140456693Y-126902209D01*
X140450718Y-126897524D01*
X140443802Y-126894401D01*
X140441516Y-126893017D01*
X140426835Y-126884643D01*
X140424475Y-126883378D01*
X140418261Y-126879010D01*
X140411182Y-126876250D01*
X140411180Y-126876249D01*
X140358725Y-126855798D01*
X140352656Y-126853247D01*
X140294427Y-126826955D01*
X140286960Y-126825571D01*
X140284405Y-126824770D01*
X140268152Y-126820141D01*
X140265572Y-126819478D01*
X140258491Y-126816718D01*
X140250960Y-126815727D01*
X140250958Y-126815726D01*
X140221339Y-126811827D01*
X140195139Y-126808378D01*
X140188641Y-126807348D01*
X140125814Y-126795704D01*
X140118234Y-126796141D01*
X140118233Y-126796141D01*
X140063608Y-126799291D01*
X140056354Y-126799500D01*
X130350158Y-126799500D01*
X130290624Y-126782205D01*
X130289948Y-126783590D01*
X130283609Y-126780498D01*
X130277666Y-126776727D01*
X130263880Y-126771818D01*
X130113425Y-126718243D01*
X130113420Y-126718242D01*
X130106790Y-126715881D01*
X130099802Y-126715048D01*
X130099799Y-126715047D01*
X129976698Y-126700368D01*
X129926680Y-126694404D01*
X129919677Y-126695140D01*
X129919676Y-126695140D01*
X129753288Y-126712628D01*
X129753286Y-126712629D01*
X129746288Y-126713364D01*
X129574579Y-126771818D01*
X129529923Y-126799291D01*
X129426095Y-126863166D01*
X129426092Y-126863168D01*
X129420088Y-126866862D01*
X129415053Y-126871793D01*
X129415050Y-126871795D01*
X129295525Y-126988843D01*
X129290493Y-126993771D01*
X129192235Y-127146238D01*
X129189826Y-127152858D01*
X129189824Y-127152861D01*
X129132606Y-127310066D01*
X129130197Y-127316685D01*
X129107463Y-127496640D01*
X128524500Y-127496640D01*
X128524500Y-94614500D01*
X128544502Y-94546379D01*
X128598158Y-94499886D01*
X128650500Y-94488500D01*
X137070952Y-94488500D01*
X137139073Y-94508502D01*
G37*
%TD.AperFunction*%
%TD*%
M02*
