%TF.GenerationSoftware,KiCad,Pcbnew,(6.0.6)*%
%TF.CreationDate,2022-10-01T00:42:19+08:00*%
%TF.ProjectId,Scratch_control,53637261-7463-4685-9f63-6f6e74726f6c,rev?*%
%TF.SameCoordinates,Original*%
%TF.FileFunction,Paste,Top*%
%TF.FilePolarity,Positive*%
%FSLAX46Y46*%
G04 Gerber Fmt 4.6, Leading zero omitted, Abs format (unit mm)*
G04 Created by KiCad (PCBNEW (6.0.6)) date 2022-10-01 00:42:19*
%MOMM*%
%LPD*%
G01*
G04 APERTURE LIST*
G04 Aperture macros list*
%AMRoundRect*
0 Rectangle with rounded corners*
0 $1 Rounding radius*
0 $2 $3 $4 $5 $6 $7 $8 $9 X,Y pos of 4 corners*
0 Add a 4 corners polygon primitive as box body*
4,1,4,$2,$3,$4,$5,$6,$7,$8,$9,$2,$3,0*
0 Add four circle primitives for the rounded corners*
1,1,$1+$1,$2,$3*
1,1,$1+$1,$4,$5*
1,1,$1+$1,$6,$7*
1,1,$1+$1,$8,$9*
0 Add four rect primitives between the rounded corners*
20,1,$1+$1,$2,$3,$4,$5,0*
20,1,$1+$1,$4,$5,$6,$7,0*
20,1,$1+$1,$6,$7,$8,$9,0*
20,1,$1+$1,$8,$9,$2,$3,0*%
G04 Aperture macros list end*
%ADD10RoundRect,0.225000X-0.225000X-0.250000X0.225000X-0.250000X0.225000X0.250000X-0.225000X0.250000X0*%
%ADD11RoundRect,0.250000X-0.250000X-0.475000X0.250000X-0.475000X0.250000X0.475000X-0.250000X0.475000X0*%
%ADD12R,1.120000X2.160000*%
%ADD13RoundRect,0.150000X0.150000X0.700000X-0.150000X0.700000X-0.150000X-0.700000X0.150000X-0.700000X0*%
%ADD14RoundRect,0.250000X0.250000X1.100000X-0.250000X1.100000X-0.250000X-1.100000X0.250000X-1.100000X0*%
%ADD15RoundRect,0.242500X-0.242500X-0.382500X0.242500X-0.382500X0.242500X0.382500X-0.242500X0.382500X0*%
%ADD16RoundRect,0.150000X-0.650000X-0.150000X0.650000X-0.150000X0.650000X0.150000X-0.650000X0.150000X0*%
%ADD17R,1.800000X2.500000*%
%ADD18RoundRect,0.225000X0.225000X0.250000X-0.225000X0.250000X-0.225000X-0.250000X0.225000X-0.250000X0*%
%ADD19R,1.500000X2.000000*%
%ADD20R,3.800000X2.000000*%
%ADD21RoundRect,0.200000X0.275000X-0.200000X0.275000X0.200000X-0.275000X0.200000X-0.275000X-0.200000X0*%
%ADD22R,1.500000X2.200000*%
%ADD23RoundRect,0.200000X-0.275000X0.200000X-0.275000X-0.200000X0.275000X-0.200000X0.275000X0.200000X0*%
%ADD24RoundRect,0.225000X-0.250000X0.225000X-0.250000X-0.225000X0.250000X-0.225000X0.250000X0.225000X0*%
%ADD25RoundRect,0.218750X-0.256250X0.218750X-0.256250X-0.218750X0.256250X-0.218750X0.256250X0.218750X0*%
%ADD26RoundRect,0.225000X0.250000X-0.225000X0.250000X0.225000X-0.250000X0.225000X-0.250000X-0.225000X0*%
%ADD27RoundRect,0.200000X0.200000X0.275000X-0.200000X0.275000X-0.200000X-0.275000X0.200000X-0.275000X0*%
%ADD28RoundRect,0.250000X-1.500000X-1.000000X1.500000X-1.000000X1.500000X1.000000X-1.500000X1.000000X0*%
%ADD29RoundRect,0.100000X-0.637500X-0.100000X0.637500X-0.100000X0.637500X0.100000X-0.637500X0.100000X0*%
%ADD30RoundRect,0.200000X-0.200000X-0.275000X0.200000X-0.275000X0.200000X0.275000X-0.200000X0.275000X0*%
G04 APERTURE END LIST*
D10*
%TO.C,C16*%
X170929000Y-100330000D03*
X172479000Y-100330000D03*
%TD*%
%TO.C,C15*%
X152133000Y-99822000D03*
X153683000Y-99822000D03*
%TD*%
%TO.C,C14*%
X129781000Y-98806000D03*
X131331000Y-98806000D03*
%TD*%
D11*
%TO.C,C1*%
X149672000Y-117602000D03*
X151572000Y-117602000D03*
%TD*%
D12*
%TO.C,RST1*%
X132715000Y-132525000D03*
X132715000Y-139255000D03*
%TD*%
D13*
%TO.C,J3*%
X160762000Y-98624000D03*
X159512000Y-98624000D03*
X158262000Y-98624000D03*
D14*
X156412000Y-95424000D03*
X162612000Y-95424000D03*
%TD*%
D15*
%TO.C,U2*%
X158023000Y-119139000D03*
X159223000Y-119139000D03*
X158023000Y-117589000D03*
X159223000Y-117589000D03*
D16*
X155973000Y-116459000D03*
X155973000Y-117729000D03*
X155973000Y-118999000D03*
X155973000Y-120269000D03*
X161273000Y-120269000D03*
X161273000Y-118999000D03*
X161273000Y-117729000D03*
X161273000Y-116459000D03*
%TD*%
D10*
%TO.C,C3*%
X165849000Y-112395000D03*
X167399000Y-112395000D03*
%TD*%
D17*
%TO.C,D3*%
X151384000Y-107347000D03*
X151384000Y-111347000D03*
%TD*%
D18*
%TO.C,C9*%
X184925000Y-109855000D03*
X183375000Y-109855000D03*
%TD*%
D19*
%TO.C,U1*%
X174611000Y-113005000D03*
D20*
X176911000Y-106705000D03*
D19*
X176911000Y-113005000D03*
X179211000Y-113005000D03*
%TD*%
D21*
%TO.C,R7*%
X143510000Y-129032000D03*
X143510000Y-127382000D03*
%TD*%
D22*
%TO.C,L1*%
X156693000Y-108966000D03*
X163093000Y-108966000D03*
%TD*%
D23*
%TO.C,R10*%
X130810000Y-127495800D03*
X130810000Y-129145800D03*
%TD*%
D12*
%TO.C,K2*%
X151638000Y-132474200D03*
X151638000Y-139204200D03*
%TD*%
D24*
%TO.C,C8*%
X146177000Y-127495000D03*
X146177000Y-129045000D03*
%TD*%
D12*
%TO.C,K4*%
X139065000Y-132525000D03*
X139065000Y-139255000D03*
%TD*%
D25*
%TO.C,D2*%
X161798000Y-127419500D03*
X161798000Y-128994500D03*
%TD*%
D23*
%TO.C,R1*%
X165227000Y-123889000D03*
X165227000Y-125539000D03*
%TD*%
D24*
%TO.C,C10*%
X133350000Y-127545800D03*
X133350000Y-129095800D03*
%TD*%
D26*
%TO.C,C12*%
X130175000Y-114440000D03*
X130175000Y-112890000D03*
%TD*%
D12*
%TO.C,K3*%
X145288000Y-132474200D03*
X145288000Y-139204200D03*
%TD*%
D24*
%TO.C,C6*%
X158750000Y-127432000D03*
X158750000Y-128982000D03*
%TD*%
D18*
%TO.C,C4*%
X151397000Y-115570000D03*
X149847000Y-115570000D03*
%TD*%
%TO.C,C5*%
X184925000Y-112522000D03*
X183375000Y-112522000D03*
%TD*%
D23*
%TO.C,R11*%
X139700000Y-127445000D03*
X139700000Y-129095000D03*
%TD*%
D25*
%TO.C,D1*%
X165227000Y-127482500D03*
X165227000Y-129057500D03*
%TD*%
D27*
%TO.C,R8*%
X167512000Y-120523000D03*
X165862000Y-120523000D03*
%TD*%
D12*
%TO.C,K1*%
X157988000Y-132474200D03*
X157988000Y-139204200D03*
%TD*%
D28*
%TO.C,C13*%
X178614000Y-120904000D03*
X185114000Y-120904000D03*
%TD*%
D29*
%TO.C,U3*%
X133662500Y-111375000D03*
X133662500Y-112025000D03*
X133662500Y-112675000D03*
X133662500Y-113325000D03*
X133662500Y-113975000D03*
X133662500Y-114625000D03*
X133662500Y-115275000D03*
X133662500Y-115925000D03*
X133662500Y-116575000D03*
X133662500Y-117225000D03*
X139387500Y-117225000D03*
X139387500Y-116575000D03*
X139387500Y-115925000D03*
X139387500Y-115275000D03*
X139387500Y-114625000D03*
X139387500Y-113975000D03*
X139387500Y-113325000D03*
X139387500Y-112675000D03*
X139387500Y-112025000D03*
X139387500Y-111375000D03*
%TD*%
D30*
%TO.C,R2*%
X165799000Y-114427000D03*
X167449000Y-114427000D03*
%TD*%
D21*
%TO.C,R5*%
X156210000Y-129032000D03*
X156210000Y-127382000D03*
%TD*%
D23*
%TO.C,R3*%
X161798000Y-123889000D03*
X161798000Y-125539000D03*
%TD*%
D26*
%TO.C,C11*%
X137160000Y-129045000D03*
X137160000Y-127495000D03*
%TD*%
D10*
%TO.C,C2*%
X165849000Y-116459000D03*
X167399000Y-116459000D03*
%TD*%
D24*
%TO.C,C7*%
X152400000Y-127495000D03*
X152400000Y-129045000D03*
%TD*%
D27*
%TO.C,R4*%
X151415000Y-120396000D03*
X149765000Y-120396000D03*
%TD*%
D30*
%TO.C,R9*%
X165799000Y-118491000D03*
X167449000Y-118491000D03*
%TD*%
D21*
%TO.C,R6*%
X149860000Y-129095000D03*
X149860000Y-127445000D03*
%TD*%
M02*
