M48
; DRILL file {KiCad (6.0.6)} date Sat Oct  1 00:42:22 2022
; FORMAT={-:-/ absolute / inch / decimal}
; #@! TF.CreationDate,2022-10-01T00:42:22+08:00
; #@! TF.GenerationSoftware,Kicad,Pcbnew,(6.0.6)
; #@! TF.FileFunction,Plated,1,2,PTH
FMAT,2
INCH
; #@! TA.AperFunction,Plated,PTH,ViaDrill
T1C0.0157
; #@! TA.AperFunction,Plated,PTH,ComponentDrill
T2C0.0394
; #@! TA.AperFunction,Plated,PTH,ComponentDrill
T3C0.0748
%
G90
G05
T1
X5.115Y-5.02
X5.12Y-4.145
X5.12Y-4.205
X5.12Y-4.26
X5.12Y-4.32
X5.125Y-4.65
X5.175Y-4.145
X5.175Y-4.205
X5.175Y-4.26
X5.175Y-4.32
X5.185Y-4.49
X5.19Y-5.31
X5.19Y-5.37
X5.245Y-5.31
X5.245Y-5.37
X5.33Y-4.505
X5.375Y-4.495
X5.445Y-4.54
X5.45Y-5.32
X5.45Y-5.38
X5.485Y-4.715
X5.485Y-4.775
X5.505Y-5.32
X5.505Y-5.38
X5.515Y-4.12
X5.54Y-4.715
X5.54Y-4.775
X5.545Y-4.565
X5.545Y-5.045
X5.55Y-4.515
X5.57Y-4.44
X5.5783Y-4.0439
X5.61Y-4.645
X5.61Y-4.715
X5.61Y-4.775
X5.625Y-4.41
X5.645Y-4.25
X5.645Y-4.31
X5.665Y-4.715
X5.665Y-4.775
X5.69Y-5.32
X5.69Y-5.38
X5.7Y-4.25
X5.7Y-4.31
X5.745Y-5.32
X5.745Y-5.38
X5.77Y-4.13
X5.77Y-4.19
X5.825Y-4.13
X5.825Y-4.19
X5.825Y-4.565
X5.84Y-5.085
X5.94Y-5.31
X5.94Y-5.37
X5.995Y-5.31
X5.995Y-5.37
X6.02Y-4.765
X6.095Y-4.46
X6.105Y-5.135
X6.155Y-4.475
X6.17Y-4.91
X6.19Y-5.315
X6.19Y-5.375
X6.2071Y-4.9472
X6.23Y-3.815
X6.245Y-5.375
X6.2499Y-4.4748
X6.2528Y-4.1378
X6.2528Y-4.1978
X6.28Y-5.015
X6.3078Y-4.1378
X6.3078Y-4.1978
X6.4343Y-5.1048
X6.44Y-4.985
X6.4636Y-4.43
X6.53Y-4.605
X6.5839Y-4.3631
X6.585Y-4.035
X6.585Y-4.095
X6.64Y-4.035
X6.64Y-4.095
X6.695Y-4.955
X6.695Y-5.015
X6.695Y-5.09
X6.695Y-5.15
X6.695Y-5.215
X6.695Y-5.275
X6.7197Y-4.735
X6.72Y-4.035
X6.72Y-4.095
X6.75Y-4.955
X6.75Y-5.015
X6.75Y-5.09
X6.75Y-5.15
X6.75Y-5.215
X6.75Y-5.275
X6.775Y-4.035
X6.775Y-4.095
X6.795Y-4.5
X6.8009Y-4.7447
X6.92Y-4.2
X6.92Y-4.745
X6.965Y-4.201
X7.005Y-4.2
X7.02Y-5.305
X7.02Y-5.365
X7.075Y-5.305
X7.075Y-5.365
X7.155Y-4.255
X7.16Y-5.305
X7.16Y-5.365
X7.1691Y-4.6583
X7.1797Y-4.7994
X7.215Y-5.305
X7.215Y-5.365
X7.22Y-4.375
X7.245Y-4.26
X7.3Y-4.5
X7.3962Y-4.4013
T2
X5.2856Y-3.8622
X5.3856Y-3.8622
X5.4856Y-3.8622
X6.435Y-5.465
X6.535Y-5.465
X6.635Y-5.465
X6.735Y-5.465
X6.9335Y-5.4903
X6.9456Y-3.8672
X7.0456Y-3.8672
X7.1456Y-3.8672
X7.3665Y-5.4903
T3
X7.0516Y-5.0966
X7.2484Y-5.0966
T0
M30
